<svg width="980" height="112" viewBox="0 0 988 162" fill="none" xmlns="http://www.w3.org/2000/svg">
<path d="M23.456 16.48C25.504 17.088 27.072 18.08 28.16 19.456C29.248 20.832 29.792 22.528 29.792 24.544C29.792 27.52 28.656 29.84 26.384 31.504C24.144 33.168 20.928 34 16.736 34H0.176V0.399998H15.824C19.728 0.399998 22.768 1.152 24.944 2.656C27.12 4.16 28.208 6.304 28.208 9.088C28.208 10.752 27.792 12.224 26.96 13.504C26.128 14.752 24.96 15.744 23.456 16.48ZM7.904 14.32H15.152C16.848 14.32 18.128 13.984 18.992 13.312C19.856 12.608 20.288 11.584 20.288 10.24C20.288 8.928 19.84 7.92 18.944 7.216C18.08 6.512 16.816 6.16 15.152 6.16H7.904V14.32ZM16.448 28.24C20.096 28.24 21.92 26.8 21.92 23.92C21.92 21.136 20.096 19.744 16.448 19.744H7.904V28.24H16.448ZM978.071 118.4H986.999L985.511 140.336H979.559L978.071 118.4ZM982.535 152.384C981.223 152.384 980.119 151.968 979.223 151.136C978.359 150.272 977.927 149.232 977.927 148.016C977.927 146.8 978.359 145.792 979.223 144.992C980.087 144.16 981.191 143.744 982.535 143.744C983.879 143.744 984.983 144.16 985.847 144.992C986.711 145.792 987.143 146.8 987.143 148.016C987.143 149.232 986.695 150.272 985.799 151.136C984.935 151.968 983.847 152.384 982.535 152.384Z" fill="#DD3939"/>
<path d="M63.3594 8.176H70.7994V18.256H82.0314V8.176H89.5194V34H82.0314V24.352H70.7994V34H63.3594V8.176ZM166.156 24.208H162.556V34H155.164V24.208H151.564L146.092 34H137.26L145.372 20.656L137.836 8.176H145.756L151.468 18.208H155.164V8.176H162.556V18.208H166.204L171.964 8.176H179.884L172.348 20.656L180.508 34H171.628L166.156 24.208ZM191.6 8.176H199.04V18.256H210.272V8.176H217.76V34H210.272V24.352H199.04V34H191.6V8.176ZM295.838 21.184C295.838 21.28 295.79 21.952 295.694 23.2H276.158C276.51 24.8 277.342 26.064 278.654 26.992C279.966 27.92 281.598 28.384 283.55 28.384C284.894 28.384 286.078 28.192 287.102 27.808C288.158 27.392 289.134 26.752 290.03 25.888L294.014 30.208C291.582 32.992 288.03 34.384 283.358 34.384C280.446 34.384 277.87 33.824 275.63 32.704C273.39 31.552 271.662 29.968 270.446 27.952C269.23 25.936 268.622 23.648 268.622 21.088C268.622 18.56 269.214 16.288 270.398 14.272C271.614 12.224 273.262 10.64 275.342 9.52C277.454 8.368 279.806 7.792 282.398 7.792C284.926 7.792 287.214 8.336 289.262 9.424C291.31 10.512 292.91 12.08 294.062 14.128C295.246 16.144 295.838 18.496 295.838 21.184ZM282.446 13.456C280.75 13.456 279.326 13.936 278.174 14.896C277.022 15.856 276.318 17.168 276.062 18.832H288.782C288.526 17.2 287.822 15.904 286.67 14.944C285.518 13.952 284.11 13.456 282.446 13.456ZM349.3 20.512C352.34 21.536 353.86 23.584 353.86 26.656C353.86 28.992 352.98 30.8 351.22 32.08C349.46 33.36 346.836 34 343.348 34H329.572V8.176H342.772C346.004 8.176 348.532 8.768 350.356 9.952C352.18 11.104 353.092 12.736 353.092 14.848C353.092 16.128 352.756 17.264 352.084 18.256C351.444 19.216 350.516 19.968 349.3 20.512ZM336.436 18.784H342.1C344.724 18.784 346.036 17.856 346.036 16C346.036 14.176 344.724 13.264 342.1 13.264H336.436V18.784ZM342.724 28.912C345.476 28.912 346.852 27.968 346.852 26.08C346.852 25.088 346.532 24.368 345.892 23.92C345.252 23.44 344.244 23.2 342.868 23.2H336.436V28.912H342.724ZM381.847 7.792C384.247 7.792 386.423 8.352 388.375 9.472C390.359 10.56 391.911 12.112 393.031 14.128C394.151 16.112 394.711 18.432 394.711 21.088C394.711 23.744 394.151 26.08 393.031 28.096C391.911 30.08 390.359 31.632 388.375 32.752C386.423 33.84 384.247 34.384 381.847 34.384C378.551 34.384 375.959 33.344 374.071 31.264V43.312H366.583V8.176H373.735V11.152C375.591 8.912 378.295 7.792 381.847 7.792ZM380.551 28.24C382.471 28.24 384.039 27.6 385.255 26.32C386.503 25.008 387.127 23.264 387.127 21.088C387.127 18.912 386.503 17.184 385.255 15.904C384.039 14.592 382.471 13.936 380.551 13.936C378.631 13.936 377.047 14.592 375.799 15.904C374.583 17.184 373.975 18.912 373.975 21.088C373.975 23.264 374.583 25.008 375.799 26.32C377.047 27.6 378.631 28.24 380.551 28.24ZM432.263 21.184C432.263 21.28 432.215 21.952 432.119 23.2H412.583C412.935 24.8 413.767 26.064 415.079 26.992C416.391 27.92 418.023 28.384 419.975 28.384C421.319 28.384 422.503 28.192 423.527 27.808C424.583 27.392 425.559 26.752 426.455 25.888L430.439 30.208C428.007 32.992 424.455 34.384 419.783 34.384C416.871 34.384 414.295 33.824 412.055 32.704C409.815 31.552 408.087 29.968 406.871 27.952C405.655 25.936 405.047 23.648 405.047 21.088C405.047 18.56 405.639 16.288 406.823 14.272C408.039 12.224 409.687 10.64 411.767 9.52C413.879 8.368 416.231 7.792 418.823 7.792C421.351 7.792 423.639 8.336 425.687 9.424C427.735 10.512 429.335 12.08 430.487 14.128C431.671 16.144 432.263 18.496 432.263 21.184ZM418.871 13.456C417.175 13.456 415.751 13.936 414.599 14.896C413.447 15.856 412.743 17.168 412.487 18.832H425.207C424.951 17.2 424.247 15.904 423.095 14.944C421.943 13.952 420.535 13.456 418.871 13.456ZM470.403 34V18.544L462.675 31.504H459.507L451.971 18.496V34H445.203V8.176H453.027L461.283 23.104L470.067 8.176H477.075L477.171 34H470.403ZM514.488 8.176V34H507.816V26.608H502.296L497.4 34H489.432L495.336 25.552C493.544 24.848 492.168 23.84 491.208 22.528C490.28 21.184 489.816 19.568 489.816 17.68C489.816 14.64 490.904 12.304 493.08 10.672C495.288 9.008 498.312 8.176 502.152 8.176H514.488ZM502.296 14.272C500.696 14.272 499.48 14.56 498.648 15.136C497.848 15.712 497.448 16.64 497.448 17.92C497.448 19.2 497.832 20.144 498.6 20.752C499.4 21.328 500.6 21.616 502.2 21.616H507.816V14.272H502.296ZM476.79 138.512C479.83 139.536 481.35 141.584 481.35 144.656C481.35 146.992 480.47 148.8 478.71 150.08C476.95 151.36 474.326 152 470.838 152H457.062V126.176H470.262C473.494 126.176 476.022 126.768 477.846 127.952C479.67 129.104 480.582 130.736 480.582 132.848C480.582 134.128 480.246 135.264 479.574 136.256C478.934 137.216 478.006 137.968 476.79 138.512ZM463.926 136.784H469.59C472.214 136.784 473.526 135.856 473.526 134C473.526 132.176 472.214 131.264 469.59 131.264H463.926V136.784ZM470.214 146.912C472.966 146.912 474.342 145.968 474.342 144.08C474.342 143.088 474.022 142.368 473.382 141.92C472.742 141.44 471.734 141.2 470.358 141.2H463.926V146.912H470.214ZM514.916 126.176H522.356V136.256H533.588V126.176H541.076V152H533.588V142.352H522.356V152H514.916V126.176ZM617.712 142.208H614.112V152H606.72V142.208H603.12L597.648 152H588.816L596.928 138.656L589.392 126.176H597.312L603.024 136.208H606.72V126.176H614.112V136.208H617.76L623.52 126.176H631.44L623.904 138.656L632.064 152H623.184L617.712 142.208ZM643.156 126.176H650.596V136.256H661.828V126.176H669.316V152H661.828V142.352H650.596V152H643.156V126.176ZM747.491 152V136.544L739.763 149.504H736.595L729.059 136.496V152H722.291V126.176H730.115L738.371 141.104L747.155 126.176H754.163L754.259 152H747.491ZM814.625 152V136.544L806.897 149.504H803.729L796.193 136.496V152H789.425V126.176H797.249L805.505 141.104L814.289 126.176H821.297L821.393 152H814.625ZM860.87 139.184C860.87 139.28 860.822 139.952 860.726 141.2H841.19C841.542 142.8 842.374 144.064 843.686 144.992C844.998 145.92 846.63 146.384 848.582 146.384C849.926 146.384 851.11 146.192 852.134 145.808C853.19 145.392 854.166 144.752 855.062 143.888L859.046 148.208C856.614 150.992 853.062 152.384 848.39 152.384C845.478 152.384 842.902 151.824 840.662 150.704C838.422 149.552 836.694 147.968 835.478 145.952C834.262 143.936 833.654 141.648 833.654 139.088C833.654 136.56 834.246 134.288 835.43 132.272C836.646 130.224 838.294 128.64 840.374 127.52C842.486 126.368 844.838 125.792 847.43 125.792C849.958 125.792 852.246 126.336 854.294 127.424C856.342 128.512 857.942 130.08 859.094 132.128C860.278 134.144 860.87 136.496 860.87 139.184ZM847.478 131.456C845.782 131.456 844.358 131.936 843.206 132.896C842.054 133.856 841.35 135.168 841.094 136.832H853.814C853.558 135.2 852.854 133.904 851.702 132.944C850.55 131.952 849.142 131.456 847.478 131.456ZM886.097 152.384C883.345 152.384 880.865 151.824 878.657 150.704C876.481 149.552 874.769 147.968 873.521 145.952C872.305 143.936 871.697 141.648 871.697 139.088C871.697 136.528 872.305 134.24 873.521 132.224C874.769 130.208 876.481 128.64 878.657 127.52C880.865 126.368 883.345 125.792 886.097 125.792C888.817 125.792 891.185 126.368 893.201 127.52C895.249 128.64 896.737 130.256 897.665 132.368L891.857 135.488C890.513 133.12 888.577 131.936 886.049 131.936C884.097 131.936 882.481 132.576 881.201 133.856C879.921 135.136 879.281 136.88 879.281 139.088C879.281 141.296 879.921 143.04 881.201 144.32C882.481 145.6 884.097 146.24 886.049 146.24C888.609 146.24 890.545 145.056 891.857 142.688L897.665 145.856C896.737 147.904 895.249 149.504 893.201 150.656C891.185 151.808 888.817 152.384 886.097 152.384ZM931.018 132.32H922.282V152H914.842V132.32H906.106V126.176H931.018V132.32ZM966.235 139.184C966.235 139.28 966.187 139.952 966.091 141.2H946.555C946.907 142.8 947.739 144.064 949.051 144.992C950.363 145.92 951.995 146.384 953.947 146.384C955.291 146.384 956.475 146.192 957.499 145.808C958.555 145.392 959.531 144.752 960.427 143.888L964.411 148.208C961.979 150.992 958.427 152.384 953.755 152.384C950.843 152.384 948.267 151.824 946.027 150.704C943.787 149.552 942.059 147.968 940.843 145.952C939.627 143.936 939.019 141.648 939.019 139.088C939.019 136.56 939.611 134.288 940.795 132.272C942.011 130.224 943.659 128.64 945.739 127.52C947.851 126.368 950.203 125.792 952.795 125.792C955.323 125.792 957.611 126.336 959.659 127.424C961.707 128.512 963.307 130.08 964.459 132.128C965.643 134.144 966.235 136.496 966.235 139.184ZM952.843 131.456C951.147 131.456 949.723 131.936 948.571 132.896C947.419 133.856 946.715 135.168 946.459 136.832H959.179C958.923 135.2 958.219 133.904 957.067 132.944C955.915 131.952 954.507 131.456 952.843 131.456Z" fill="#525252"/>
<path d="M129.759 8.176L118.095 35.584C116.911 38.56 115.439 40.656 113.679 41.872C111.951 43.088 109.855 43.696 107.391 43.696C106.047 43.696 104.719 43.488 103.407 43.072C102.095 42.656 101.023 42.08 100.191 41.344L102.927 36.016C103.503 36.528 104.159 36.928 104.895 37.216C105.663 37.504 106.415 37.648 107.151 37.648C108.175 37.648 109.007 37.392 109.647 36.88C110.287 36.4 110.863 35.584 111.375 34.432L111.471 34.192L100.287 8.176H108.015L115.263 25.696L122.559 8.176H129.759ZM244.224 34.384C241.504 34.384 239.056 33.824 236.88 32.704C234.736 31.552 233.056 29.968 231.84 27.952C230.624 25.936 230.016 23.648 230.016 21.088C230.016 18.528 230.624 16.24 231.84 14.224C233.056 12.208 234.736 10.64 236.88 9.52C239.056 8.368 241.504 7.792 244.224 7.792C246.944 7.792 249.376 8.368 251.52 9.52C253.664 10.64 255.344 12.208 256.56 14.224C257.776 16.24 258.384 18.528 258.384 21.088C258.384 23.648 257.776 25.936 256.56 27.952C255.344 29.968 253.664 31.552 251.52 32.704C249.376 33.824 246.944 34.384 244.224 34.384ZM244.224 28.24C246.144 28.24 247.712 27.6 248.928 26.32C250.176 25.008 250.8 23.264 250.8 21.088C250.8 18.912 250.176 17.184 248.928 15.904C247.712 14.592 246.144 13.936 244.224 13.936C242.304 13.936 240.72 14.592 239.472 15.904C238.224 17.184 237.6 18.912 237.6 21.088C237.6 23.264 238.224 25.008 239.472 26.32C240.72 27.6 242.304 28.24 244.224 28.24ZM581.316 126.176L569.652 153.584C568.468 156.56 566.996 158.656 565.236 159.872C563.508 161.088 561.412 161.696 558.948 161.696C557.604 161.696 556.276 161.488 554.964 161.072C553.652 160.656 552.58 160.08 551.748 159.344L554.484 154.016C555.06 154.528 555.716 154.928 556.452 155.216C557.22 155.504 557.972 155.648 558.708 155.648C559.732 155.648 560.564 155.392 561.204 154.88C561.844 154.4 562.42 153.584 562.932 152.432L563.028 152.192L551.844 126.176H559.572L566.82 143.696L574.116 126.176H581.316ZM695.78 152.384C693.06 152.384 690.612 151.824 688.436 150.704C686.292 149.552 684.612 147.968 683.396 145.952C682.18 143.936 681.572 141.648 681.572 139.088C681.572 136.528 682.18 134.24 683.396 132.224C684.612 130.208 686.292 128.64 688.436 127.52C690.612 126.368 693.06 125.792 695.78 125.792C698.5 125.792 700.932 126.368 703.076 127.52C705.22 128.64 706.9 130.208 708.116 132.224C709.332 134.24 709.94 136.528 709.94 139.088C709.94 141.648 709.332 143.936 708.116 145.952C706.9 147.968 705.22 149.552 703.076 150.704C700.932 151.824 698.5 152.384 695.78 152.384ZM695.78 146.24C697.7 146.24 699.268 145.6 700.484 144.32C701.732 143.008 702.356 141.264 702.356 139.088C702.356 136.912 701.732 135.184 700.484 133.904C699.268 132.592 697.7 131.936 695.78 131.936C693.86 131.936 692.276 132.592 691.028 133.904C689.78 135.184 689.156 136.912 689.156 139.088C689.156 141.264 689.78 143.008 691.028 144.32C692.276 145.6 693.86 146.24 695.78 146.24Z" fill="#22A816"/>
</svg>
